<svg width="22" height="23" viewBox="0 0 22 23" fill="none" xmlns="http://www.w3.org/2000/svg">
<path opacity="0.5" d="M0.242676 11.3854C0.394036 12.2416 0.606661 13.2332 0.855325 14.3916L1.36947 16.7898C1.95449 19.5154 2.2476 20.8776 3.23865 21.6775C4.2297 22.4773 5.62558 22.4773 8.41734 22.4773H13.5828C16.3746 22.4773 17.7704 22.4773 18.7603 21.6775C19.7525 20.8776 20.0457 19.5154 20.6295 16.7898L21.1448 14.3916C21.3935 13.2332 21.6061 12.2416 21.7575 11.3854H0.242676Z" fill="#FFB13D"/>
<path fill-rule="evenodd" clip-rule="evenodd" d="M7.69653 14.0827C7.69653 13.8444 7.79146 13.6158 7.96042 13.4473C8.12938 13.2788 8.35854 13.1841 8.59749 13.1841H13.4026C13.6415 13.1841 13.8707 13.2788 14.0396 13.4473C14.2086 13.6158 14.3035 13.8444 14.3035 14.0827C14.3035 14.321 14.2086 14.5496 14.0396 14.7181C13.8707 14.8866 13.6415 14.9813 13.4026 14.9813H8.59749C8.35854 14.9813 8.12938 14.8866 7.96042 14.7181C7.79146 14.5496 7.69653 14.321 7.69653 14.0827Z" fill="#FFB13D"/>
<path d="M6.5913 0.491381C6.70296 0.286757 6.88982 0.133379 7.11251 0.063553C7.33521 -0.00627266 7.57637 0.0129056 7.78518 0.117048C7.994 0.22119 8.15417 0.402167 8.23196 0.621856C8.30975 0.841545 8.29908 1.0828 8.20221 1.29479L5.99788 5.69557C6.57769 5.69157 7.21276 5.68957 7.90309 5.68957H14.0969C14.788 5.68878 15.4231 5.69077 16.0021 5.69557L13.7977 1.29479C13.6932 1.08166 13.6773 0.835915 13.7535 0.611123C13.8297 0.386331 13.9918 0.200708 14.2045 0.0947071C14.4172 -0.0112941 14.6632 -0.0290816 14.889 0.0452207C15.1148 0.119523 15.302 0.279892 15.4098 0.491381L18.0538 5.76992C19.6792 5.89462 20.6991 6.21359 21.3573 7.0254C21.8811 7.67172 22.0493 8.47513 21.988 9.58672H21.8114C21.8715 9.58672 21.93 9.59232 21.9868 9.60351C21.9451 10.2014 21.8689 10.7963 21.7586 11.3854H0.242577C0.13144 10.7964 0.0544303 10.2014 0.0119323 9.60351C0.0702997 9.59358 0.129323 9.58797 0.188519 9.58672H0.0119323C-0.0493327 8.47513 0.120047 7.67172 0.642601 7.0254C1.3009 6.21239 2.32078 5.89462 3.9461 5.76992L6.5913 0.491381Z" fill="#FFB13D"/>
</svg>
