<svg width="20" height="20" viewBox="0 0 20 20" fill="none" xmlns="http://www.w3.org/2000/svg">
<path fill-rule="evenodd" clip-rule="evenodd" d="M4.34104 0.311794C8.10216 -0.103931 11.8978 -0.103931 15.6589 0.311794C17.7413 0.544806 19.4214 2.18196 19.6657 4.26815C20.1114 8.07643 20.1114 11.9236 19.6657 15.7319C19.4214 17.818 17.7413 19.4552 15.6589 19.6882C11.8978 20.1039 8.10216 20.1039 4.34104 19.6882C2.2586 19.4552 0.578547 17.818 0.334198 15.7319C-0.111399 11.924 -0.111399 8.07724 0.334198 4.26936C0.457792 3.25584 0.92061 2.31369 1.64764 1.5956C2.37468 0.877508 3.32332 0.425562 4.33982 0.313007M5.70866 5.71598C5.87962 5.54552 6.11135 5.44978 6.35296 5.44978C6.59458 5.44978 6.82631 5.54552 6.99727 5.71598L9.99997 8.71358L13.0027 5.71598C13.0861 5.62655 13.1868 5.55482 13.2986 5.50507C13.4105 5.45533 13.5312 5.42858 13.6536 5.42642C13.776 5.42426 13.8976 5.44674 14.0112 5.49252C14.1247 5.5383 14.2278 5.60644 14.3144 5.69287C14.401 5.7793 14.4692 5.88226 14.5151 5.99559C14.561 6.10893 14.5835 6.23032 14.5813 6.35254C14.5792 6.47475 14.5524 6.59528 14.5025 6.70693C14.4527 6.81858 14.3808 6.91907 14.2913 7.0024L11.2886 10L14.2913 12.9976C14.4523 13.1701 14.54 13.3984 14.5358 13.6342C14.5317 13.87 14.436 14.095 14.2689 14.2617C14.1019 14.4285 13.8765 14.524 13.6403 14.5282C13.4041 14.5323 13.1755 14.4448 13.0027 14.284L9.99997 11.2864L6.99727 14.284C6.9138 14.3735 6.81314 14.4452 6.7013 14.4949C6.58946 14.5447 6.46873 14.5714 6.34631 14.5736C6.22388 14.5757 6.10228 14.5533 5.98875 14.5075C5.87523 14.4617 5.7721 14.3936 5.68552 14.3071C5.59894 14.2207 5.53069 14.1177 5.48483 14.0044C5.43897 13.8911 5.41645 13.7697 5.41861 13.6475C5.42077 13.5252 5.44757 13.4047 5.4974 13.2931C5.54723 13.1814 5.61908 13.0809 5.70866 12.9976L8.71136 10L5.70866 7.0024C5.53792 6.83173 5.44202 6.60039 5.44202 6.35919C5.44202 6.11798 5.53792 5.88664 5.70866 5.71598Z" fill="#FFA827"/>
</svg>
